<svg width="55" height="78" viewBox="0 0 55 78" fill="none" xmlns="http://www.w3.org/2000/svg">
<path d="M40.0799 27.5061C40.505 26.2873 42.2522 25.1561 42.9829 25.587C43.7137 26.018 44.1256 28.1457 43.82 29.4857C43.3896 30.9874 42.7307 32.4118 41.8669 33.7076C41.4417 34.1789 39.8739 35.1485 38.8774 34.8859L40.0799 27.5061Z" fill="#FAD4AF"/>
<path d="M40.505 26.7586C40.3226 26.9816 40.1788 27.2343 40.0799 27.506L38.8774 34.9128C39.6447 34.9899 40.4142 34.7895 41.0498 34.3472L40.505 26.7586Z" fill="#F09E78"/>
<path d="M14.4237 27.5061C13.9986 26.2873 12.2514 25.1561 11.514 25.587C10.7766 26.018 10.378 28.1457 10.6836 29.4857C11.1107 30.9887 11.7699 32.4136 12.6367 33.7076C13.0619 34.1789 14.6297 35.1485 15.6262 34.8859L14.4237 27.5061Z" fill="#FAD4AF"/>
<path d="M13.9986 26.7586C14.1791 26.983 14.3226 27.2354 14.4238 27.506L15.6262 34.9128C14.8571 34.9869 14.0866 34.7869 13.4473 34.3472L13.9986 26.7586Z" fill="#F09E78"/>
<path d="M17.9648 31.0478C17.9648 31.0478 18.7022 39.707 18.8616 43.8413C19.0211 47.9757 19.3532 50.77 14.5103 54.3926C9.66743 58.0152 6.98358 59.712 5.48222 60.9106C4.32467 61.7005 3.38678 62.7787 2.7585 64.0416C2.14733 65.2806 0.566243 68.7214 0.765539 68.9907C1.90153 70.5124 13.3544 77.4815 27.252 77.4815C41.1496 77.4815 52.5958 70.5124 53.7384 68.9907C53.9377 68.7214 52.3567 65.2806 51.7455 64.0416C51.1172 62.7787 50.1793 61.7005 49.0218 60.9106C47.5138 59.712 44.8299 58.0219 39.9936 54.3926C35.1574 50.7633 35.4763 48.0093 35.6357 43.8413C35.7951 39.6733 36.5326 31.0478 36.5326 31.0478H17.9648Z" fill="url(#paint0_linear_15_3631)"/>
<path d="M32.4667 47.2485C33.6223 46.0398 34.6902 44.7481 35.6621 43.3835C35.8548 39.0741 36.5324 31.0478 36.5324 31.0478H17.9314C17.9314 31.0478 18.5957 39.0741 18.8083 43.3835C19.7801 44.7463 20.8456 46.0379 21.997 47.2485C24.2624 49.8004 25.8501 50.6152 27.2186 50.6152C28.5871 50.6152 30.2014 49.8004 32.4667 47.2485Z" fill="#F09E78"/>
<path d="M27.2519 4.29593C14.9088 4.29593 13.0089 12.7868 13.0089 17.655C12.9847 23.0867 13.7023 28.4956 15.1414 33.7277C16.7158 39.7878 19.7916 41.9762 22.0304 43.9087C24.2691 45.8412 25.8834 46.4674 27.2519 46.4674C28.6204 46.4674 30.2015 45.8479 32.4668 43.9087C34.7322 41.9695 37.7814 39.7946 39.3558 33.7277C40.7999 28.4965 41.5198 23.0872 41.4949 17.655C41.4949 12.7868 39.595 4.29593 27.2519 4.29593Z" fill="url(#paint1_linear_15_3631)"/>
<g style="mix-blend-mode:multiply">
<path d="M27.2518 4.29593C14.9087 4.29593 13.0088 12.7868 13.0088 17.655C13.0088 18.086 13.0088 18.5169 13.0088 18.9411L15.9185 16.2882L19.1272 14.5577C20.3362 12.6454 23.319 9.46047 23.99 9.64227C24.661 9.82407 28.6868 15.8572 31.5566 18.2543C34.4265 20.6514 39.2627 21.52 39.2627 21.52L41.4683 19.5C41.4683 18.8805 41.4683 18.2678 41.4683 17.655C41.4948 12.7868 39.5949 4.29593 27.2518 4.29593Z" fill="#E6C8BA"/>
</g>
<path d="M42.777 9.33928H11.7333L11.4277 18.0254L12.3378 25.5534L13.7528 26.9001C13.7528 26.9001 16.3703 20.5168 16.3703 19.7155C16.3703 18.9142 16.0314 15.0021 16.0314 15.0021L19.1405 14.5981L19.672 13.5207C24.917 12.6579 30.2874 13.0265 35.3698 14.5981L38.4789 15.0021C38.4789 15.0021 38.1467 18.9277 38.1467 19.7155C38.1467 20.5033 40.7641 26.9001 40.7641 26.9001L42.1725 25.5534L43.0892 18.0254L42.777 9.33928Z" fill="url(#paint2_linear_15_3631)"/>
<path d="M31.8356 9.33928H19.6653V13.4871C23.7008 12.8214 27.8204 12.8806 31.8356 13.6621V9.33928Z" fill="#171B1F"/>
<path d="M38.1401 19.6953C38.1448 19.7817 38.1581 19.8675 38.18 19.9512C39.0138 19.9419 39.8394 19.7823 40.618 19.4798L38.1999 18.4563C38.1667 19.0085 38.1401 19.4731 38.1401 19.6953Z" fill="#171B1F"/>
<path d="M11.6803 20.1666C11.1555 17.8099 9.20239 10.8475 9.20239 10.8475C10.9056 8.47792 13.4355 6.85507 16.2774 6.30923C17.9894 3.29496 20.7565 1.04299 24.03 0C29.0324 0.430939 42.6775 7.32597 43.0827 7.91178C43.488 8.49758 43.0827 18.0119 43.0827 18.0119L40.6181 19.4663C40.6181 19.4663 35.7088 19.2172 32.5665 17.2039C29.4243 15.1906 24.6678 9.79714 23.9968 9.6288C23.3259 9.46047 20.3431 12.6319 19.134 14.5442L15.9453 14.9213L11.6803 20.1666Z" fill="url(#paint3_linear_15_3631)"/>
<path opacity="0.1" d="M31.3706 12.2953C35.1826 13.6059 39.2495 13.9684 43.2287 13.3524C43.2287 12.2414 43.2686 11.1102 43.262 10.1675C40.711 10.9957 35.775 12.3828 31.3706 12.2953Z" fill="white"/>
<path d="M18.7087 13.4332C18.7087 13.4332 19.7318 9.61533 21.3129 8.29558C21.3129 8.29558 19.8647 11.4468 18.7087 13.4332Z" fill="#171B1F"/>
<path d="M18.2104 11.1573C18.461 9.62573 18.8891 8.12953 19.4859 6.69977C19.2165 8.2269 18.7889 9.721 18.2104 11.1573Z" fill="#171B1F"/>
<path d="M17.5195 8.46393C17.625 7.52331 17.8483 6.60014 18.1839 5.71669C18.0808 6.65775 17.8575 7.58124 17.5195 8.46393Z" fill="#171B1F"/>
<path d="M52.1771 63.8463C51.5228 62.5144 50.5385 61.3775 49.3205 60.547C48.6562 60.015 47.7925 59.4158 46.5901 58.5741C45.0821 57.5237 43.0161 56.076 40.2791 54.0223C38.1732 52.4399 37.097 51.0461 36.5589 49.6052L27.2584 57.6853L17.9579 49.6052C17.4198 51.0461 16.3436 52.4467 14.2311 54.0223C11.5007 56.0423 9.43468 57.5169 7.92667 58.5673C6.72425 59.409 5.86065 60.015 5.19633 60.547C3.97671 61.3776 2.99024 62.5143 2.33311 63.8463C-0.0650877 68.7079 0.253791 69.1321 0.386655 69.3139C1.66879 71.0309 13.4339 78 27.265 78C41.0962 78 52.8547 71.0309 54.1368 69.3139C54.2498 69.1321 54.5753 68.7079 52.1771 63.8463Z" fill="#E5EBF2"/>
<g style="mix-blend-mode:multiply">
<path d="M18.8349 48.0767L27.2452 57.7055L19.4129 68.3039L16.3171 51.6589L18.8349 48.0767Z" fill="#D7DCE3"/>
</g>
<g style="mix-blend-mode:multiply">
<path d="M35.6621 48.0767L27.2451 57.7055L35.0907 68.3039L38.1798 51.6589L35.6621 48.0767Z" fill="#D7DCE3"/>
</g>
<path d="M27.2519 78C28.8389 77.9994 30.4246 77.9095 32.0018 77.7307L28.9127 63.3279L31.5699 58.6683V55.3016H30.0155L27.2386 57.7189L24.4551 55.3016H22.9072V58.6683L25.5645 63.3279L22.4688 77.7307C24.0569 77.9107 25.6538 78.0006 27.2519 78Z" fill="url(#paint4_linear_15_3631)"/>
<path d="M18.8349 48.0767L27.2452 57.7055L19.4129 64.2773L16.3171 51.6589L18.8349 48.0767Z" fill="white"/>
<path d="M16.5295 51.9214C15.8391 52.7074 15.0636 53.4121 14.2177 54.0223C11.4873 56.0423 9.42127 57.5169 7.91327 58.5673C6.71085 59.409 5.84724 60.015 5.18292 60.547C3.9633 61.3776 2.97682 62.5143 2.31968 63.8464C-0.0785154 68.7079 0.240363 69.1321 0.373227 69.3139C1.58893 70.9434 12.2247 77.2863 25.1059 77.9394L16.5295 51.9214Z" fill="url(#paint5_linear_15_3631)"/>
<path d="M25.3253 77.9529H25.3917L17.3268 50.2112C17.3268 50.2112 14.7825 52.5746 14.4769 52.9045C14.3622 53.0586 14.2801 53.235 14.2355 53.4226C14.1909 53.6103 14.1849 53.8052 14.2178 53.9953C14.2178 54.3522 14.3307 66.23 14.3307 66.8764C14.3224 67.1644 14.3878 67.4498 14.5205 67.7046C14.6533 67.9595 14.8488 68.1752 15.0881 68.3308C15.5797 68.6675 20.5488 71.5426 20.8544 71.7581C21.16 71.9736 21.0404 72.2833 20.7946 72.1958C20.5488 72.1082 12.557 68.9166 11.9193 68.7954C11.2815 68.6742 11.0025 69.2869 10.8829 69.8121C10.7833 70.2229 12.1186 73.1317 13.3609 75.7847C17.2452 77.0063 21.264 77.7346 25.3253 77.9529Z" fill="#273852"/>
<path d="M35.6621 48.0767L27.2451 57.7055L35.0907 64.2773L38.1798 51.6589L35.6621 48.0767Z" fill="white"/>
<path d="M37.9741 51.9214C38.6621 52.7074 39.4353 53.4122 40.2793 54.0223C43.0096 56.0423 45.0757 57.5169 46.5837 58.5673C47.7861 59.409 48.6564 60.015 49.3207 60.547C50.5369 61.3796 51.5208 62.516 52.1773 63.8464C54.5755 68.7079 54.2633 69.1321 54.1237 69.3139C52.908 70.9434 42.2789 77.2863 29.3911 77.9394L37.9741 51.9214Z" fill="url(#paint6_linear_15_3631)"/>
<path d="M29.1783 77.9529H29.1118L37.1767 50.2112C37.1767 50.2112 39.7144 52.5746 40.02 52.9045C40.138 53.0568 40.2222 53.233 40.2669 53.4213C40.3116 53.6095 40.3158 53.8053 40.279 53.9953C40.279 54.3522 40.1728 66.23 40.1728 66.8764C40.181 67.1652 40.1149 67.4512 39.981 67.7062C39.847 67.9613 39.6498 68.1765 39.4088 68.3308C38.9238 68.6675 33.9481 71.5426 33.6425 71.7581C33.3369 71.9736 33.4631 72.2833 33.7089 72.1958C33.9547 72.1082 41.9399 68.9166 42.5843 68.7954C43.2286 68.6742 43.501 69.2869 43.6206 69.8121C43.7136 70.2229 42.3783 73.1317 41.1427 75.7847C37.2584 77.0063 33.2395 77.7346 29.1783 77.9529Z" fill="#273852"/>
<path d="M28.9127 63.3279H25.5845L25.425 64.0888H29.0722L28.9127 63.3279Z" fill="#611717"/>
<defs>
<linearGradient id="paint0_linear_15_3631" x1="27.252" y1="53.5779" x2="27.252" y2="36.6433" gradientUnits="userSpaceOnUse">
<stop stop-color="#FAD4AF"/>
<stop offset="1" stop-color="#F09E78"/>
</linearGradient>
<linearGradient id="paint1_linear_15_3631" x1="27.2519" y1="27.8225" x2="27.2519" y2="3.48118" gradientUnits="userSpaceOnUse">
<stop stop-color="#FAD4AF"/>
<stop offset="1" stop-color="#F09E78"/>
</linearGradient>
<linearGradient id="paint2_linear_15_3631" x1="27.2518" y1="4.59221" x2="27.2518" y2="24.1124" gradientUnits="userSpaceOnUse">
<stop stop-color="#1C242B"/>
<stop offset="1" stop-color="#343D45"/>
</linearGradient>
<linearGradient id="paint3_linear_15_3631" x1="26.2356" y1="4.5922" x2="26.2356" y2="24.1124" gradientUnits="userSpaceOnUse">
<stop stop-color="#1C242B"/>
<stop offset="1" stop-color="#343D45"/>
</linearGradient>
<linearGradient id="paint4_linear_15_3631" x1="27.2519" y1="76.6399" x2="27.2519" y2="60.6412" gradientUnits="userSpaceOnUse">
<stop stop-color="#AD2828"/>
<stop offset="1" stop-color="#8C0F0F"/>
</linearGradient>
<linearGradient id="paint5_linear_15_3631" x1="12.6964" y1="76.5591" x2="12.6964" y2="55.4161" gradientUnits="userSpaceOnUse">
<stop stop-color="#111924"/>
<stop offset="1" stop-color="#223147"/>
</linearGradient>
<linearGradient id="paint6_linear_15_3631" x1="41.8073" y1="76.5591" x2="41.8073" y2="55.4161" gradientUnits="userSpaceOnUse">
<stop stop-color="#111924"/>
<stop offset="1" stop-color="#223147"/>
</linearGradient>
</defs>
</svg>
