<svg width="48" height="48" viewBox="0 0 48 48" fill="none" xmlns="http://www.w3.org/2000/svg">
<path d="M13.5 16.5V7.50001C13.5 7.10219 13.6581 6.72066 13.9394 6.43935C14.2207 6.15805 14.6022 6.00001 15 6.00001C15.3978 6.00001 15.7794 6.15805 16.0607 6.43935C16.342 6.72066 16.5 7.10219 16.5 7.50001V16.5C16.5 16.8978 16.342 17.2794 16.0607 17.5607C15.7794 17.842 15.3978 18 15 18C14.6022 18 14.2207 17.842 13.9394 17.5607C13.6581 17.2794 13.5 16.8978 13.5 16.5ZM40.5 7.50001V42C40.5 42.3978 40.342 42.7794 40.0607 43.0607C39.7794 43.342 39.3978 43.5 39 43.5C38.6022 43.5 38.2207 43.342 37.9394 43.0607C37.658 42.7794 37.5 42.3978 37.5 42V33H28.5C28.1022 33 27.7207 32.842 27.4394 32.5607C27.158 32.2794 27 31.8978 27 31.5C27.0697 27.9069 27.5235 24.3316 28.3538 20.835C30.1875 13.2431 33.6638 8.15439 38.4094 6.12189C38.6375 6.02418 38.8863 5.98459 39.1334 6.00666C39.3806 6.02873 39.6184 6.11177 39.8256 6.24834C40.0328 6.38491 40.2028 6.57074 40.3205 6.78919C40.4382 7.00764 40.4999 7.25187 40.5 7.50001ZM37.5 10.1063C31.4681 14.7131 30.2869 25.935 30.0563 30H37.5V10.1063ZM22.4794 7.25439C22.45 7.05743 22.3817 6.86829 22.2785 6.698C22.1752 6.52772 22.0391 6.3797 21.8781 6.26257C21.717 6.14544 21.5342 6.06156 21.3404 6.0158C21.1466 5.97005 20.9456 5.96335 20.7492 5.99609C20.5528 6.02882 20.3648 6.10035 20.1963 6.20649C20.0278 6.31262 19.8822 6.45125 19.7678 6.61428C19.6534 6.77731 19.5727 6.96147 19.5303 7.15604C19.4878 7.35061 19.4846 7.55167 19.5206 7.74751L21 16.6181C21 18.2094 20.3679 19.7356 19.2427 20.8608C18.1174 21.986 16.5913 22.6181 15 22.6181C13.4087 22.6181 11.8826 21.986 10.7574 20.8608C9.63216 19.7356 9.00001 18.2094 9.00001 16.6181L10.4775 7.74751C10.5136 7.55167 10.5103 7.35061 10.4679 7.15604C10.4255 6.96147 10.3447 6.77731 10.2304 6.61428C10.116 6.45125 9.97032 6.31262 9.80182 6.20649C9.63332 6.10035 9.44538 6.02882 9.24895 5.99609C9.05252 5.96335 8.85154 5.97005 8.65773 6.0158C8.46391 6.06156 8.28115 6.14544 8.1201 6.26257C7.95905 6.3797 7.82293 6.52772 7.71969 6.698C7.61645 6.86829 7.54814 7.05743 7.51876 7.25439L6.01876 16.2544C6.00593 16.3356 5.99966 16.4178 6.00001 16.5C6.00301 18.6259 6.75736 20.6823 8.12977 22.3059C9.50217 23.9294 11.4043 25.0156 13.5 25.3725V42C13.5 42.3978 13.6581 42.7794 13.9394 43.0607C14.2207 43.342 14.6022 43.5 15 43.5C15.3978 43.5 15.7794 43.342 16.0607 43.0607C16.342 42.7794 16.5 42.3978 16.5 42V25.3725C18.5957 25.0156 20.4979 23.9294 21.8703 22.3059C23.2427 20.6823 23.997 18.6259 24 16.5C23.9997 16.4177 23.9929 16.3356 23.9794 16.2544L22.4794 7.25439Z" fill="#E98510"/>
</svg>
