<svg width="311" height="302" viewBox="0 0 311 302" fill="none" xmlns="http://www.w3.org/2000/svg">
<path fill-rule="evenodd" clip-rule="evenodd" d="M132.364 24.4829C173.359 26.0244 214.183 32.1123 245.836 58.0902C280.813 86.7961 312.608 125.948 310.937 171.041C309.298 215.269 273.682 249.871 237.763 275.956C207.447 297.972 169.76 303.837 132.364 300.725C98.4629 297.903 65.2333 285.591 43.2309 259.764C22.6896 235.653 26.8152 202.272 21.8832 171.041C15.2666 129.143 -15.5913 83.1454 9.98159 49.2215C35.954 14.7678 89.1208 22.8568 132.364 24.4829Z" fill="#FFD6AD"/>
<path d="M192.161 70.8942H190.856V35.1687C190.856 32.4534 190.322 29.7645 189.283 27.2558C188.244 24.7471 186.721 22.4676 184.801 20.5474C182.881 18.6273 180.601 17.1041 178.093 16.0649C175.584 15.0257 172.895 14.4907 170.18 14.4906H94.4901C89.0062 14.4906 83.7469 16.6691 79.8692 20.5468C75.9915 24.4245 73.813 29.6838 73.813 35.1677V231.162C73.813 236.646 75.9915 241.905 79.8692 245.783C83.7469 249.66 89.0062 251.839 94.4901 251.839H170.18C175.664 251.839 180.923 249.66 184.801 245.783C188.679 241.905 190.857 236.646 190.857 231.162V96.3243H192.162L192.161 70.8942Z" fill="#3F3D56"/>
<path d="M186.456 35.313V231.018C186.456 235.113 184.829 239.041 181.933 241.937C179.037 244.833 175.109 246.46 171.014 246.46H94.9612C90.8658 246.46 86.9382 244.833 84.0423 241.937C81.1463 239.041 79.5194 235.113 79.5193 231.018V35.313C79.5197 31.2178 81.1467 27.2904 84.0425 24.3948C86.9383 21.4991 90.8657 19.8723 94.9609 19.8721H104.187C103.734 20.9861 103.561 22.1945 103.685 23.391C103.808 24.5874 104.223 25.7352 104.894 26.7334C105.565 27.7317 106.471 28.5497 107.533 29.1156C108.594 29.6815 109.778 29.9779 110.981 29.9788H154.342C155.545 29.9779 156.729 29.6814 157.791 29.1155C158.852 28.5496 159.758 27.7315 160.429 26.7333C161.1 25.7351 161.515 24.5873 161.638 23.3909C161.761 22.1945 161.589 20.9861 161.135 19.8721H171.014C175.109 19.8722 179.037 21.4991 181.933 24.395C184.829 27.2909 186.456 31.2186 186.456 35.314V35.313Z" fill="white"/>
<path d="M90.1344 39.3883C90.5586 39.3883 90.9025 39.0445 90.9025 38.6203C90.9025 38.1961 90.5586 37.8523 90.1344 37.8523C89.7103 37.8523 89.3664 38.1961 89.3664 38.6203C89.3664 39.0445 89.7103 39.3883 90.1344 39.3883Z" fill="#3F3D56"/>
<path d="M92.9505 39.3883C93.3747 39.3883 93.7186 39.0445 93.7186 38.6203C93.7186 38.1961 93.3747 37.8523 92.9505 37.8523C92.5264 37.8523 92.1825 38.1961 92.1825 38.6203C92.1825 39.0445 92.5264 39.3883 92.9505 39.3883Z" fill="#3F3D56"/>
<path d="M95.767 39.3883C96.1911 39.3883 96.535 39.0445 96.535 38.6203C96.535 38.1961 96.1911 37.8523 95.767 37.8523C95.3428 37.8523 94.9989 38.1961 94.9989 38.6203C94.9989 39.0445 95.3428 39.3883 95.767 39.3883Z" fill="#3F3D56"/>
<path d="M176.162 36.5723H168.225V37.5963H176.162V36.5723Z" fill="#3F3D56"/>
<path d="M176.162 38.1083H168.225V39.1323H176.162V38.1083Z" fill="#3F3D56"/>
<path d="M176.162 39.6447H168.225V40.6687H176.162V39.6447Z" fill="#3F3D56"/>
<path d="M135.473 51.8645H96.5579C94.825 51.8665 93.1636 52.6627 91.938 54.0785C90.7124 55.4944 90.0226 57.4143 90.0201 59.4171V153.465H164.119V84.9741C164.11 76.196 161.089 67.7803 155.719 61.5732C150.349 55.3662 143.067 51.8746 135.473 51.8645V51.8645Z" fill="white"/>
<path d="M151.293 144.999H102.846C102.428 144.999 102.026 145.201 101.73 145.562C101.434 145.923 101.267 146.412 101.267 146.923C101.267 147.433 101.434 147.923 101.73 148.283C102.026 148.644 102.428 148.847 102.846 148.847H151.293C151.712 148.847 152.113 148.644 152.409 148.283C152.706 147.923 152.872 147.433 152.872 146.923C152.872 146.412 152.706 145.923 152.409 145.562C152.113 145.201 151.712 144.999 151.293 144.999V144.999Z" fill="#E4E4E4"/>
<path d="M151.293 171.938H102.846C102.428 171.938 102.026 172.141 101.73 172.502C101.434 172.863 101.267 173.352 101.267 173.862C101.267 174.373 101.434 174.862 101.73 175.223C102.026 175.584 102.428 175.787 102.846 175.787H151.293C151.712 175.787 152.113 175.584 152.409 175.223C152.706 174.862 152.872 174.373 152.872 173.862C152.872 173.352 152.706 172.863 152.409 172.502C152.113 172.141 151.712 171.938 151.293 171.938V171.938Z" fill="#E4E4E4"/>
<path d="M151.293 202.726H102.846C102.428 202.726 102.026 202.929 101.73 203.29C101.434 203.651 101.267 204.14 101.267 204.65C101.267 205.161 101.434 205.65 101.73 206.011C102.026 206.372 102.428 206.575 102.846 206.575H151.293C151.712 206.575 152.113 206.372 152.409 206.011C152.706 205.65 152.872 205.161 152.872 204.65C152.872 204.14 152.706 203.651 152.409 203.29C152.113 202.929 151.712 202.726 151.293 202.726V202.726Z" fill="#E4E4E4"/>
<path d="M151.291 138.071H102.848C102.429 138.071 102.027 138.274 101.73 138.635C101.434 138.996 101.267 139.485 101.267 139.995C101.267 140.506 101.434 140.995 101.73 141.356C102.027 141.717 102.429 141.92 102.848 141.92H151.291C151.711 141.92 152.113 141.717 152.409 141.356C152.705 140.995 152.872 140.506 152.872 139.995C152.872 139.485 152.705 138.996 152.409 138.635C152.113 138.274 151.711 138.071 151.291 138.071V138.071Z" fill="#E4E4E4"/>
<path d="M151.291 165.011H102.848C102.429 165.011 102.027 165.214 101.73 165.574C101.434 165.935 101.267 166.425 101.267 166.935C101.267 167.445 101.434 167.935 101.73 168.296C102.027 168.657 102.429 168.859 102.848 168.859H151.291C151.711 168.859 152.113 168.657 152.409 168.296C152.705 167.935 152.872 167.445 152.872 166.935C152.872 166.425 152.705 165.935 152.409 165.574C152.113 165.214 151.711 165.011 151.291 165.011V165.011Z" fill="#E4E4E4"/>
<path d="M151.291 195.029H102.848C102.429 195.029 102.027 195.232 101.73 195.593C101.434 195.954 101.267 196.443 101.267 196.953C101.267 197.464 101.434 197.953 101.73 198.314C102.027 198.675 102.429 198.878 102.848 198.878H151.291C151.711 198.878 152.113 198.675 152.409 198.314C152.705 197.953 152.872 197.464 152.872 196.953C152.872 196.443 152.705 195.954 152.409 195.593C152.113 195.232 151.711 195.029 151.291 195.029V195.029Z" fill="#E4E4E4"/>
<path d="M124.146 130.374H102.867C102.443 130.374 102.036 130.577 101.736 130.938C101.436 131.299 101.267 131.788 101.267 132.298C101.267 132.809 101.436 133.298 101.736 133.659C102.036 134.02 102.443 134.223 102.867 134.223H124.146C124.571 134.223 124.978 134.02 125.278 133.659C125.578 133.298 125.746 132.809 125.746 132.298C125.746 131.788 125.578 131.299 125.278 130.938C124.978 130.577 124.571 130.374 124.146 130.374V130.374Z" fill="#E4E4E4"/>
<path d="M124.146 157.314H102.867C102.443 157.314 102.036 157.516 101.736 157.877C101.436 158.238 101.267 158.728 101.267 159.238C101.267 159.748 101.436 160.238 101.736 160.599C102.036 160.96 102.443 161.162 102.867 161.162H124.146C124.571 161.162 124.978 160.96 125.278 160.599C125.578 160.238 125.746 159.748 125.746 159.238C125.746 158.728 125.578 158.238 125.278 157.877C124.978 157.516 124.571 157.314 124.146 157.314V157.314Z" fill="#E4E4E4"/>
<path d="M124.146 188.102H102.867C102.443 188.102 102.036 188.305 101.736 188.665C101.436 189.026 101.267 189.516 101.267 190.026C101.267 190.536 101.436 191.026 101.736 191.387C102.036 191.748 102.443 191.95 102.867 191.95H124.146C124.571 191.95 124.978 191.748 125.278 191.387C125.578 191.026 125.746 190.536 125.746 190.026C125.746 189.516 125.578 189.026 125.278 188.665C124.978 188.305 124.571 188.102 124.146 188.102V188.102Z" fill="#E4E4E4"/>
<path d="M151.291 115.75H102.848C102.429 115.75 102.027 115.912 101.73 116.201C101.434 116.489 101.267 116.881 101.267 117.289C101.267 117.697 101.434 118.089 101.73 118.378C102.027 118.666 102.429 118.829 102.848 118.829H151.291C151.711 118.829 152.113 118.666 152.409 118.378C152.705 118.089 152.872 117.697 152.872 117.289C152.872 116.881 152.705 116.489 152.409 116.201C152.113 115.912 151.711 115.75 151.291 115.75Z" fill="#E4E4E4"/>
<path d="M151.293 108.822H102.846C102.428 108.822 102.026 108.985 101.73 109.273C101.434 109.562 101.267 109.954 101.267 110.362C101.267 110.77 101.434 111.162 101.73 111.45C102.026 111.739 102.428 111.901 102.846 111.901H151.293C151.712 111.901 152.113 111.739 152.409 111.45C152.706 111.162 152.872 110.77 152.872 110.362C152.872 109.954 152.706 109.562 152.409 109.273C152.113 108.985 151.712 108.822 151.293 108.822V108.822Z" fill="#E4E4E4"/>
<path d="M124.145 101.125H102.869C102.444 101.125 102.037 101.328 101.736 101.689C101.436 102.05 101.267 102.539 101.267 103.05C101.267 103.56 101.436 104.05 101.736 104.41C102.037 104.771 102.444 104.974 102.869 104.974H124.145C124.57 104.974 124.977 104.771 125.277 104.41C125.578 104.05 125.746 103.56 125.746 103.05C125.746 102.539 125.578 102.05 125.277 101.689C124.977 101.328 124.57 101.125 124.145 101.125Z" fill="#E4E4E4"/>
<path d="M151.291 85.7314H102.848C102.429 85.7314 102.027 85.9342 101.73 86.295C101.434 86.6559 101.267 87.1453 101.267 87.6557C101.267 88.166 101.434 88.6555 101.73 89.0163C102.027 89.3772 102.429 89.5799 102.848 89.5799H151.291C151.711 89.5799 152.113 89.3772 152.409 89.0163C152.705 88.6555 152.872 88.166 152.872 87.6557C152.872 87.1453 152.705 86.6559 152.409 86.295C152.113 85.9342 151.711 85.7314 151.291 85.7314Z" fill="#130160"/>
<path d="M151.291 78.804H102.848C102.429 78.804 102.027 78.9662 101.73 79.2549C101.434 79.5436 101.267 79.9352 101.267 80.3434C101.267 80.7517 101.434 81.1433 101.73 81.432C102.027 81.7207 102.429 81.8828 102.848 81.8828H151.291C151.711 81.8828 152.113 81.7207 152.409 81.432C152.705 81.1433 152.872 80.7517 152.872 80.3434C152.872 79.9352 152.705 79.5436 152.409 79.2549C152.113 78.9662 151.711 78.804 151.291 78.804Z" fill="#130160"/>
<path d="M124.145 71.107H102.869C102.444 71.107 102.037 71.3097 101.736 71.6706C101.436 72.0315 101.267 72.5209 101.267 73.0313C101.267 73.5416 101.436 74.0311 101.736 74.3919C102.037 74.7528 102.444 74.9555 102.869 74.9555H124.145C124.57 74.9555 124.977 74.7528 125.277 74.3919C125.578 74.0311 125.746 73.5416 125.746 73.0313C125.746 72.5209 125.578 72.0315 125.277 71.6706C124.977 71.3097 124.57 71.107 124.145 71.107Z" fill="#130160"/>
<path d="M287.792 108.093L273.342 86.627L258.951 97.896L272.543 108.437L275.336 142.114C274.475 143.02 273.897 144.155 273.672 145.383C273.448 146.61 273.586 147.875 274.071 149.025C274.556 150.175 275.367 151.16 276.403 151.859C277.44 152.558 278.659 152.942 279.911 152.963C281.163 152.984 282.393 152.641 283.453 151.977C284.513 151.313 285.356 150.356 285.88 149.223C286.403 148.09 286.584 146.829 286.401 145.595C286.218 144.361 285.679 143.207 284.849 142.273L287.792 108.093Z" fill="#FFB6B6"/>
<path d="M253.389 66.8414C261.033 65.4165 276.19 88.9583 276.19 88.9583C274.389 88.9966 288.285 102.945 286.805 103.619C282.6 105.535 272.574 107.031 271.02 109.617C270.13 111.096 261.268 101.03 261.268 101.03C261.268 101.03 255.73 95.7795 248.739 88.8839C246.726 86.971 245.231 84.5817 244.394 81.9385C243.558 79.2954 243.406 76.4842 243.953 73.7668C243.953 73.7668 245.744 68.2662 253.389 66.8414Z" fill="#130160"/>
<path d="M260.637 257.315L261.174 245.289C266.77 242.308 273.012 240.734 279.357 240.703C270.624 247.816 271.715 261.53 265.795 271.096C263.925 274.066 261.409 276.578 258.432 278.447C255.455 280.316 252.095 281.493 248.599 281.892L241.291 286.35C240.288 280.78 240.51 275.06 241.939 269.583C243.369 264.107 245.973 259.004 249.573 254.627C251.617 252.191 253.96 250.021 256.548 248.169C258.299 252.767 260.637 257.315 260.637 257.315Z" fill="#E6E1FF"/>
<path d="M241.807 280.162L235.189 280.161L232.041 254.73L241.808 254.73L241.807 280.162Z" fill="#FFB6B6"/>
<path d="M243.495 286.553L222.157 286.552V286.283C222.157 284.088 223.032 281.984 224.59 280.432C226.147 278.88 228.26 278.008 230.462 278.008H230.463L234.36 275.062L241.632 278.009L243.495 278.009L243.495 286.553Z" fill="#2F2E41"/>
<path d="M211.063 280.162L204.446 280.161L201.298 254.73L211.065 254.73L211.063 280.162Z" fill="#FFB6B6"/>
<path d="M212.751 286.553L191.414 286.552V286.283C191.414 284.088 192.289 281.984 193.846 280.432C195.404 278.88 197.516 278.008 199.719 278.008H199.719L203.617 275.062L210.889 278.009L212.751 278.009L212.751 286.553Z" fill="#2F2E41"/>
<path d="M208.199 141.127L251.242 142.2C259.416 146.623 259.541 156.198 256.862 167.566C256.862 167.566 257.766 174.323 255.958 176.125C254.149 177.927 253.245 177.927 254.149 181.08C255.054 184.233 250.276 189.383 250.857 189.962C251.437 190.54 252.793 193.693 252.793 193.693L248.272 219.369C248.272 219.369 245.107 263.964 244.203 264.865C243.299 265.766 242.395 264.865 243.299 267.118C244.203 269.37 245.107 268.469 244.203 269.37C243.402 270.23 242.647 271.132 241.942 272.073H231.012C231.012 272.073 230.188 267.568 230.188 267.118C230.188 266.667 229.283 263.964 229.283 263.514C229.283 263.063 230.083 262.267 230.083 262.267C230.359 261.351 230.545 260.411 230.64 259.46C230.64 258.559 233.352 223.874 233.352 223.874L227.927 178.828L214.816 222.973C214.816 222.973 214.816 261.712 213.912 262.613C213.007 263.514 213.007 263.063 213.46 264.865C213.912 266.667 215.72 266.217 214.364 267.568C213.007 268.919 212.555 266.667 213.007 268.919L213.46 271.172L199.896 271.365C199.896 271.365 198.088 267.568 198.992 266.217C199.896 264.865 199.842 265.234 198.739 263.023C197.636 260.811 197.184 260.361 197.636 259.91C198.088 259.46 198.088 257.064 198.088 257.064L200.348 213.964C200.348 213.964 200.8 168.467 200.8 167.116C200.835 166.421 200.706 165.727 200.425 165.089V163.255L202.157 156.755L208.199 141.127Z" fill="#69687F"/>
<path d="M234.055 51.9538C241.441 51.9538 247.429 45.9881 247.429 38.629C247.429 31.2699 241.441 25.3042 234.055 25.3042C226.669 25.3042 220.682 31.2699 220.682 38.629C220.682 45.9881 226.669 51.9538 234.055 51.9538Z" fill="#FFB6B6"/>
<path d="M227.369 60.7606C224.487 62.4672 222.764 65.6028 221.775 68.7937C219.943 74.7011 218.84 80.8088 218.491 86.9819L217.446 105.463L204.504 144.815C215.721 154.271 257.882 146.964 257.882 146.964C257.882 146.964 259.176 146.534 257.882 145.244C256.588 143.955 255.328 145.097 256.622 143.808C257.916 142.518 257.024 143.955 256.593 142.665C256.161 141.376 256.593 142.236 257.024 141.806C257.456 141.376 253.684 137.507 253.684 137.507L257.136 114.919L261.45 69.3571C256.273 62.9097 245.862 59.1089 245.862 59.1089L243.171 54.2843L229.72 55.3564L227.369 60.7606Z" fill="#130160"/>
<path d="M225.534 30.8091C226.052 30.8131 226.567 30.8805 227.068 31.0096C228.055 31.2462 229.058 31.4137 230.07 31.5111C233.166 31.8013 236.075 33.1169 238.332 35.2476C240.59 37.3784 242.066 40.2014 242.524 43.2659C243.301 42.5908 245.069 41.3491 246.519 42.5031C246.541 42.5214 246.554 42.5309 246.605 42.5068C247.567 42.0519 249.276 36.4519 249.328 31.5213C249.355 28.9043 248.942 25.5625 246.817 24.5043L246.705 24.4485L246.676 24.3273C246.534 23.7386 244.948 22.7338 242.192 21.9517C237.184 20.5303 229.719 17.7616 225.515 21.8363C225.196 23.21 224.161 26.1496 223.116 26.4829C221.958 26.8517 220.958 27.17 220.8 28.585C220.669 30.5987 220.678 32.6191 220.829 34.6315C221.221 33.4001 221.992 32.3223 223.031 31.5498C223.77 31.0541 224.644 30.7956 225.534 30.8091V30.8091Z" fill="#2F2E41"/>
<path d="M200.642 104.434L222.488 90.4945L211.485 75.9213L200.62 89.2373L166.767 91.3059C165.877 90.429 164.75 89.8291 163.523 89.5794C162.297 89.3298 161.023 89.4411 159.859 89.8999C158.695 90.3586 157.69 91.145 156.966 92.163C156.243 93.1811 155.832 94.3869 155.785 95.6335C155.737 96.88 156.055 98.1133 156.699 99.1832C157.343 100.253 158.285 101.113 159.411 101.658C160.537 102.204 161.798 102.411 163.04 102.255C164.282 102.099 165.452 101.586 166.406 100.779L200.642 104.434Z" fill="#FFB6B6"/>
<path d="M242.764 71.0378C244.032 78.6831 220.088 93.2822 220.088 93.2822C220.088 91.4878 205.797 105.035 205.152 103.546C203.319 99.3168 202.03 89.2984 199.468 87.6949C198.003 86.7778 208.291 78.1631 208.291 78.1631C208.291 78.1631 213.677 72.7575 220.744 65.9391C222.706 63.9745 225.135 62.5365 227.805 61.7589C230.475 60.9813 233.299 60.8894 236.015 61.4918C236.015 61.4918 241.496 63.3926 242.764 71.0378Z" fill="#130160"/>
<path d="M291.483 286.659C291.484 286.742 291.467 286.826 291.435 286.903C291.403 286.981 291.356 287.051 291.296 287.11C291.237 287.17 291.166 287.217 291.088 287.249C291.011 287.281 290.927 287.297 290.843 287.297H140.037C139.868 287.297 139.705 287.229 139.585 287.11C139.465 286.99 139.397 286.828 139.397 286.659C139.397 286.489 139.465 286.327 139.585 286.208C139.705 286.088 139.868 286.021 140.037 286.021H290.843C290.927 286.02 291.011 286.037 291.088 286.069C291.166 286.101 291.237 286.148 291.296 286.207C291.356 286.266 291.403 286.337 291.435 286.414C291.467 286.492 291.484 286.575 291.483 286.659Z" fill="#130160"/>
<circle cx="68.2056" cy="25.7056" r="25.2056" fill="#FCA34D"/>
<path d="M76.0081 32.3289L79.2702 35.5893C79.4223 35.7468 79.5065 35.9578 79.5046 36.1768C79.5027 36.3957 79.4149 36.6052 79.26 36.76C79.1052 36.9149 78.8957 37.0027 78.6767 37.0046C78.4578 37.0065 78.2468 36.9223 78.0893 36.7702L74.8272 33.5081C72.6955 35.3345 69.9393 36.2642 67.1369 36.1023C64.3345 35.9403 61.7037 34.6991 59.7967 32.6393C57.8896 30.5795 56.8545 27.8611 56.9085 25.0545C56.9625 22.2479 58.1015 19.5714 60.0864 17.5864C62.0713 15.6015 64.7479 14.4626 67.5545 14.4085C70.361 14.3545 73.0794 15.3896 75.1393 17.2967C77.1991 19.2037 78.4402 21.8345 78.6022 24.6369C78.7642 27.4393 77.8345 30.1955 76.0081 32.3272V32.3289ZM67.7635 34.4502C70.2 34.4502 72.5366 33.4823 74.2595 31.7595C75.9823 30.0367 76.9502 27.7 76.9502 25.2636C76.9502 22.8271 75.9823 20.4905 74.2595 18.7677C72.5366 17.0448 70.2 16.077 67.7635 16.077C65.3271 16.077 62.9904 17.0448 61.2676 18.7677C59.5448 20.4905 58.5769 22.8271 58.5769 25.2636C58.5769 27.7 59.5448 30.0367 61.2676 31.7595C62.9904 33.4823 65.3271 34.4502 67.7635 34.4502V34.4502Z" fill="white"/>
</svg>
