<svg width="48" height="48" viewBox="0 0 48 48" fill="none" xmlns="http://www.w3.org/2000/svg">
<g clip-path="url(#clip0_115_565)">
<path d="M6 42.0001H14L40 16.0001C41.0609 14.9392 41.6569 13.5003 41.6569 12.0001C41.6569 10.4998 41.0609 9.06092 40 8.00005C38.9391 6.93919 37.5003 6.3432 36 6.3432C34.4997 6.3432 33.0609 6.93919 32 8.00005L6 34.0001V42.0001Z" stroke="#E98510" stroke-width="3" stroke-linecap="round" stroke-linejoin="round"/>
<path d="M29 11L37 19" stroke="#E98510" stroke-width="3" stroke-linecap="round" stroke-linejoin="round"/>
<path d="M24 16L14 6L6 14L16 24" stroke="#E98510" stroke-width="3" stroke-linecap="round" stroke-linejoin="round"/>
<path d="M14 16L11 19" stroke="#E98510" stroke-width="3" stroke-linecap="round" stroke-linejoin="round"/>
<path d="M32 24L42 34L34 42L24 32" stroke="#E98510" stroke-width="3" stroke-linecap="round" stroke-linejoin="round"/>
<path d="M32 34L29 37" stroke="#E98510" stroke-width="3" stroke-linecap="round" stroke-linejoin="round"/>
</g>
<defs>
<clipPath id="clip0_115_565">
<rect width="48" height="48" fill="white"/>
</clipPath>
</defs>
</svg>
