<svg width="48" height="48" viewBox="0 0 48 48" fill="none" xmlns="http://www.w3.org/2000/svg">
<path d="M18 32H12C10.1144 32 9.17157 32 8.58579 32.5858C8 33.1716 8 34.1144 8 36V37.1208C8 39.3782 8 40.507 8.73202 41.1071C9.46404 41.7072 10.5709 41.4858 12.7845 41.0431L14.7845 40.6431C16.3237 40.3353 17.0934 40.1813 17.5467 39.6284C18 39.0754 18 38.2905 18 36.7208V15.2792C18 13.7095 18 12.9246 18.4533 12.3716C18.9066 11.8187 19.6763 11.6647 21.2155 11.3569L33.2155 8.95689C35.4291 8.51417 36.536 8.29281 37.268 8.89292C38 9.49304 38 10.6218 38 12.8792V18M38 28V32.7208C38 34.2905 38 35.0754 37.5467 35.6284C37.0934 36.1813 36.3237 36.3353 34.7845 36.6431L32.7845 37.0431C30.5709 37.4858 29.464 37.7072 28.732 37.1071C28 36.507 28 35.3782 28 33.1208V32C28 30.1144 28 29.1716 28.5858 28.5858C29.1716 28 30.1144 28 32 28H38ZM38 28V18M38 18L18 22" stroke="#E98510" stroke-width="3"/>
</svg>
